  <svg xmlns="http://www.w3.org/2000/svg">
    <symbol viewBox="0 0 17.5 14.66" id="icon-twitter">
        <path fill-rule="evenodd" clip-rule="evenodd" d="M11.28.15c1.74-.48 3.08.27 3.69 1.15.7-.22 1.37-.47 2.07-.69 0 .84-.54 1.48-.88 1.73.7.17 1.34-.48 1.34-.48a2.9 2.9 0 01-1.61 1.98c-.24 6.59-3.27 10.95-10.38 10.82h-.46c-.43 0-4.3-.45-5.05-1.84 2.34.19 4.01-.42 4.83-1.15-.98-.3-2.76-.47-3.06-2.88.36.1.58.22 1.22.11C1.76 8.07.4 7.37.46 5.22c.3.32 1.1.52 1.38.46C1.12 5.44-.19 2.4.92.84 2.8 2.65 4.77 4.36 8.3 4.53c.22-2.24 1.17-3.74 3-4.38z" />
    </symbol>
    <symbol viewBox="0 0 8.67 18.94" id="icon-facebook">
        <path d="M6.28 3.36h2.4V0H5.8C2.65.18 1.54 2.39 1.94 6.11H0v3.52h1.96v9.31H5.8v-9.3h2.85V6.1H5.8c-.03-1.04-.04-2.4.49-2.75z" />
    </symbol>
    <symbol viewBox="0 0 19.98 14.02" id="icon-youtube">
        <path d="M17.14 0H2.84A2.84 2.84 0 000 2.83v8.35a2.84 2.84 0 002.83 2.83h14.32a2.84 2.84 0 002.83-2.83V2.84A2.84 2.84 0 0017.14 0zM7.04 10.4V3.61L13.8 7l-6.76 3.38z" class="selected" />
    </symbol>
    <symbol viewBox="0 0 26.94 34.09" id="icon-copyright">
      <path d="M13.62.02L13.47 0 0 1.41v24.66l13.47 8.02L26.9 26.1l.05-.03V1.42L13.62.01zm11.4 12.1L13.49 5.34v-.1l-.08.05-.1-.06v.11L1.94 12.12V3.15l11.54-1.21 11.55 1.2v8.99zM13.4 6.8l11.52 6.71-4.48 2.64-7.09-4.22-.01 1.41 5.9 3.52-.86.5-5.03-2.99-.01 1.42 3.82 2.27-.78.52-3.03-1.78-.01 1.41 1.85 1.1-1.8 1.07-11.36-6.75L13.41 6.8zM1.93 15.13l11.4 6.79.02 1.04-7.94-4.73-.02 1.42 7.98 4.8.02 1.07-7.97-4.74-.01 1.41 8.02 4.83.04.02 8.15-4.87-.02-5.18 3.42-2.03v10.02l-11.55 6.87-11.54-6.87v-9.85z" />
    </symbol>
  </svg>
