  <svg style="display: none;">
    <symbol viewBox="0 0 17.5 14.66" id="icon-twitter">
      <rect width="100%" height="100%" fill="none" />
      <g>
        <path fill-rule="evenodd" clip-rule="evenodd" d="M11.28.15c1.74-.48 3.08.27 3.69 1.15.7-.22 1.37-.47 2.07-.69 0 .84-.54 1.48-.88 1.73.7.17 1.34-.48 1.34-.48a2.9 2.9 0 01-1.61 1.98c-.24 6.59-3.27 10.95-10.38 10.82h-.46c-.43 0-4.3-.45-5.05-1.84 2.34.19 4.01-.42 4.83-1.15-.98-.3-2.76-.47-3.06-2.88.36.1.58.22 1.22.11C1.76 8.07.4 7.37.46 5.22c.3.32 1.1.52 1.38.46C1.12 5.44-.19 2.4.92.84 2.8 2.65 4.77 4.36 8.3 4.53c.22-2.24 1.17-3.74 3-4.38z" />
      </g>
    </symbol>
    <symbol viewBox="0 0 8.67 18.94" id="icon-facebook">
      <rect width="100%" height="100%" fill="none" />
      <g>
        <path d="M6.28 3.36h2.4V0H5.8C2.65.18 1.54 2.39 1.94 6.11H0v3.52h1.96v9.31H5.8v-9.3h2.85V6.1H5.8c-.03-1.04-.04-2.4.49-2.75z" />
      </g>
    </symbol>
    <symbol viewBox="0 0 19.98 14.02" id="icon-youtube">
      <rect width="100%" height="100%" fill="none" />
      <g>
        <path d="M17.14 0H2.84A2.84 2.84 0 000 2.83v8.35a2.84 2.84 0 002.83 2.83h14.32a2.84 2.84 0 002.83-2.83V2.84A2.84 2.84 0 0017.14 0zM7.04 10.4V3.61L13.8 7l-6.76 3.38z" class="selected" />
      </g>
    </symbol>
  </svg>
